<mxfile host="app.diagrams.net" modified="2024-04-29T08:50:56.428Z" agent="Mozilla/5.0 (Windows NT 10.0; Win64; x64) AppleWebKit/537.36 (KHTML, like Gecko) Chrome/124.0.0.0 Safari/537.36" etag="EYGk9Q0dIS3Tb-NqDAV2" version="24.3.1" type="github">
  <diagram name="Page-1" id="VDmkInQgDxEiEUcJwZt0">
    <mxGraphModel dx="2261" dy="738" grid="1" gridSize="10" guides="1" tooltips="1" connect="1" arrows="1" fold="1" page="1" pageScale="1" pageWidth="827" pageHeight="1169" math="0" shadow="0">
      <root>
        <mxCell id="0" />
        <mxCell id="1" parent="0" />
        <mxCell id="pOMdyjoe9ijnXIdYbif0-1" style="edgeStyle=orthogonalEdgeStyle;rounded=0;orthogonalLoop=1;jettySize=auto;html=1;entryX=1;entryY=0.5;entryDx=0;entryDy=0;exitX=0.5;exitY=1;exitDx=0;exitDy=0;dashed=1;dashPattern=12 12;" edge="1" parent="1" source="pOMdyjoe9ijnXIdYbif0-59" target="pOMdyjoe9ijnXIdYbif0-50">
          <mxGeometry relative="1" as="geometry" />
        </mxCell>
        <mxCell id="pOMdyjoe9ijnXIdYbif0-2" value="" style="verticalLabelPosition=bottom;verticalAlign=top;html=1;shape=mxgraph.basic.rect;fillColor2=none;strokeWidth=2;size=20;indent=5;fillColor=none;strokeColor=#9673a6;dashed=1;perimeterSpacing=0;shadow=0;" vertex="1" parent="1">
          <mxGeometry y="140" width="830" height="340" as="geometry" />
        </mxCell>
        <UserObject label="" tooltip="KPI Extraction Microservice" id="pOMdyjoe9ijnXIdYbif0-3">
          <mxCell style="verticalLabelPosition=bottom;verticalAlign=top;html=1;shape=mxgraph.basic.rect;fillColor2=none;strokeWidth=2;size=20;indent=5;fillColor=none;strokeColor=#9673a6;dashed=1;perimeterSpacing=0;shadow=0;" vertex="1" parent="1">
            <mxGeometry x="30" y="220" width="140" height="220" as="geometry" />
          </mxCell>
        </UserObject>
        <mxCell id="pOMdyjoe9ijnXIdYbif0-4" value="" style="verticalLabelPosition=bottom;verticalAlign=top;html=1;shape=mxgraph.basic.rect;fillColor2=none;strokeWidth=2;size=20;indent=6.67;fillColor=none;strokeColor=#9673a6;dashed=1;perimeterSpacing=0;shadow=0;" vertex="1" parent="1">
          <mxGeometry x="190" y="220" width="140" height="220" as="geometry" />
        </mxCell>
        <mxCell id="pOMdyjoe9ijnXIdYbif0-5" value="" style="verticalLabelPosition=bottom;verticalAlign=top;html=1;shape=mxgraph.basic.rect;fillColor2=none;strokeWidth=2;size=20;indent=6.67;fillColor=none;strokeColor=#9673a6;dashed=1;perimeterSpacing=0;shadow=0;" vertex="1" parent="1">
          <mxGeometry x="350" y="220" width="140" height="220" as="geometry" />
        </mxCell>
        <mxCell id="pOMdyjoe9ijnXIdYbif0-6" value="" style="edgeStyle=orthogonalEdgeStyle;rounded=0;orthogonalLoop=1;jettySize=auto;html=1;entryX=0.5;entryY=0;entryDx=0;entryDy=0;" edge="1" parent="1" source="pOMdyjoe9ijnXIdYbif0-7" target="pOMdyjoe9ijnXIdYbif0-40">
          <mxGeometry relative="1" as="geometry">
            <mxPoint x="580" y="510" as="targetPoint" />
          </mxGeometry>
        </mxCell>
        <mxCell id="pOMdyjoe9ijnXIdYbif0-7" value="" style="verticalLabelPosition=bottom;verticalAlign=top;html=1;shape=mxgraph.basic.rect;fillColor2=none;strokeWidth=2;size=20;indent=6.67;fillColor=none;strokeColor=#9673a6;dashed=1;perimeterSpacing=0;shadow=0;" vertex="1" parent="1">
          <mxGeometry x="510" y="220" width="140" height="220" as="geometry" />
        </mxCell>
        <mxCell id="pOMdyjoe9ijnXIdYbif0-8" value="" style="verticalLabelPosition=bottom;verticalAlign=top;html=1;shape=mxgraph.basic.rect;fillColor2=none;strokeWidth=2;size=20;indent=6.67;fillColor=none;strokeColor=#9673a6;dashed=1;perimeterSpacing=0;shadow=0;" vertex="1" parent="1">
          <mxGeometry x="670" y="220" width="140" height="220" as="geometry" />
        </mxCell>
        <mxCell id="pOMdyjoe9ijnXIdYbif0-9" style="edgeStyle=orthogonalEdgeStyle;rounded=0;orthogonalLoop=1;jettySize=auto;html=1;exitX=0.5;exitY=1;exitDx=0;exitDy=0;entryX=0.5;entryY=0;entryDx=0;entryDy=0;strokeColor=default;shadow=0;strokeWidth=1;" edge="1" parent="1" source="pOMdyjoe9ijnXIdYbif0-15" target="pOMdyjoe9ijnXIdYbif0-17">
          <mxGeometry relative="1" as="geometry">
            <mxPoint x="420" y="180" as="sourcePoint" />
          </mxGeometry>
        </mxCell>
        <mxCell id="pOMdyjoe9ijnXIdYbif0-10" style="edgeStyle=orthogonalEdgeStyle;rounded=0;orthogonalLoop=1;jettySize=auto;html=1;exitX=0.5;exitY=1;exitDx=0;exitDy=0;entryX=0.5;entryY=0;entryDx=0;entryDy=0;strokeColor=default;shadow=0;strokeWidth=1;" edge="1" parent="1" source="pOMdyjoe9ijnXIdYbif0-15" target="pOMdyjoe9ijnXIdYbif0-19">
          <mxGeometry relative="1" as="geometry">
            <mxPoint x="420" y="180" as="sourcePoint" />
          </mxGeometry>
        </mxCell>
        <mxCell id="pOMdyjoe9ijnXIdYbif0-11" style="edgeStyle=orthogonalEdgeStyle;rounded=0;orthogonalLoop=1;jettySize=auto;html=1;exitX=0.5;exitY=1;exitDx=0;exitDy=0;entryX=0.5;entryY=0;entryDx=0;entryDy=0;strokeColor=default;shadow=0;strokeWidth=1;" edge="1" parent="1" source="pOMdyjoe9ijnXIdYbif0-15" target="pOMdyjoe9ijnXIdYbif0-21">
          <mxGeometry relative="1" as="geometry">
            <mxPoint x="420" y="180" as="sourcePoint" />
          </mxGeometry>
        </mxCell>
        <mxCell id="pOMdyjoe9ijnXIdYbif0-12" style="edgeStyle=orthogonalEdgeStyle;rounded=0;orthogonalLoop=1;jettySize=auto;html=1;exitX=0.5;exitY=1;exitDx=0;exitDy=0;entryX=0.5;entryY=0;entryDx=0;entryDy=0;strokeColor=default;shadow=0;strokeWidth=1;" edge="1" parent="1" source="pOMdyjoe9ijnXIdYbif0-15" target="pOMdyjoe9ijnXIdYbif0-23">
          <mxGeometry relative="1" as="geometry">
            <mxPoint x="420" y="180" as="sourcePoint" />
          </mxGeometry>
        </mxCell>
        <mxCell id="pOMdyjoe9ijnXIdYbif0-13" style="edgeStyle=orthogonalEdgeStyle;rounded=0;orthogonalLoop=1;jettySize=auto;html=1;exitX=0.5;exitY=1;exitDx=0;exitDy=0;entryX=0.5;entryY=0;entryDx=0;entryDy=0;strokeColor=default;shadow=0;strokeWidth=1;" edge="1" parent="1" source="pOMdyjoe9ijnXIdYbif0-15" target="pOMdyjoe9ijnXIdYbif0-25">
          <mxGeometry relative="1" as="geometry">
            <mxPoint x="420" y="180" as="sourcePoint" />
          </mxGeometry>
        </mxCell>
        <mxCell id="pOMdyjoe9ijnXIdYbif0-14" style="edgeStyle=orthogonalEdgeStyle;rounded=0;orthogonalLoop=1;jettySize=auto;html=1;entryX=0;entryY=0.5;entryDx=0;entryDy=0;exitX=-0.022;exitY=0.411;exitDx=0;exitDy=0;exitPerimeter=0;" edge="1" parent="1" source="pOMdyjoe9ijnXIdYbif0-15" target="pOMdyjoe9ijnXIdYbif0-56">
          <mxGeometry relative="1" as="geometry">
            <mxPoint x="330" y="65.00347826086961" as="sourcePoint" />
            <mxPoint x="480" y="1104.9599999999998" as="targetPoint" />
            <Array as="points">
              <mxPoint x="-170" y="65" />
              <mxPoint x="-170" y="585" />
              <mxPoint x="10" y="585" />
              <mxPoint x="10" y="1110" />
            </Array>
          </mxGeometry>
        </mxCell>
        <mxCell id="pOMdyjoe9ijnXIdYbif0-15" value="Input Query" style="rounded=1;whiteSpace=wrap;html=1;strokeColor=default;shadow=0;strokeWidth=1;" vertex="1" parent="1">
          <mxGeometry x="360" y="40" width="120" height="60" as="geometry" />
        </mxCell>
        <mxCell id="pOMdyjoe9ijnXIdYbif0-16" style="edgeStyle=orthogonalEdgeStyle;rounded=0;orthogonalLoop=1;jettySize=auto;html=1;exitX=0.5;exitY=1;exitDx=0;exitDy=0;entryX=0.5;entryY=0;entryDx=0;entryDy=0;strokeColor=default;shadow=0;strokeWidth=1;" edge="1" parent="1" source="pOMdyjoe9ijnXIdYbif0-17" target="pOMdyjoe9ijnXIdYbif0-27">
          <mxGeometry relative="1" as="geometry" />
        </mxCell>
        <mxCell id="pOMdyjoe9ijnXIdYbif0-17" value="KPI Extraction Prompt" style="rounded=1;whiteSpace=wrap;html=1;strokeColor=default;shadow=0;strokeWidth=1;" vertex="1" parent="1">
          <mxGeometry x="40" y="260" width="120" height="60" as="geometry" />
        </mxCell>
        <mxCell id="pOMdyjoe9ijnXIdYbif0-18" value="" style="edgeStyle=orthogonalEdgeStyle;rounded=0;orthogonalLoop=1;jettySize=auto;html=1;strokeColor=default;shadow=0;strokeWidth=1;" edge="1" parent="1" source="pOMdyjoe9ijnXIdYbif0-19" target="pOMdyjoe9ijnXIdYbif0-29">
          <mxGeometry relative="1" as="geometry" />
        </mxCell>
        <mxCell id="pOMdyjoe9ijnXIdYbif0-19" value="Dimension&lt;br&gt;Extraction" style="rounded=1;whiteSpace=wrap;html=1;strokeColor=default;shadow=0;strokeWidth=1;" vertex="1" parent="1">
          <mxGeometry x="200" y="260" width="120" height="60" as="geometry" />
        </mxCell>
        <mxCell id="pOMdyjoe9ijnXIdYbif0-20" value="" style="edgeStyle=orthogonalEdgeStyle;rounded=0;orthogonalLoop=1;jettySize=auto;html=1;strokeColor=default;shadow=0;strokeWidth=1;" edge="1" parent="1" source="pOMdyjoe9ijnXIdYbif0-21" target="pOMdyjoe9ijnXIdYbif0-31">
          <mxGeometry relative="1" as="geometry" />
        </mxCell>
        <mxCell id="pOMdyjoe9ijnXIdYbif0-21" value="KPI Operator" style="rounded=1;whiteSpace=wrap;html=1;strokeColor=default;shadow=0;strokeWidth=1;" vertex="1" parent="1">
          <mxGeometry x="360" y="260" width="120" height="60" as="geometry" />
        </mxCell>
        <mxCell id="pOMdyjoe9ijnXIdYbif0-22" value="" style="edgeStyle=orthogonalEdgeStyle;rounded=0;orthogonalLoop=1;jettySize=auto;html=1;strokeColor=default;shadow=0;strokeWidth=1;" edge="1" parent="1" source="pOMdyjoe9ijnXIdYbif0-23" target="pOMdyjoe9ijnXIdYbif0-32">
          <mxGeometry relative="1" as="geometry" />
        </mxCell>
        <mxCell id="pOMdyjoe9ijnXIdYbif0-23" value="Key Operator" style="rounded=1;whiteSpace=wrap;html=1;strokeColor=default;shadow=0;strokeWidth=1;" vertex="1" parent="1">
          <mxGeometry x="520" y="260" width="120" height="60" as="geometry" />
        </mxCell>
        <mxCell id="pOMdyjoe9ijnXIdYbif0-24" value="" style="edgeStyle=orthogonalEdgeStyle;rounded=0;orthogonalLoop=1;jettySize=auto;html=1;strokeColor=default;shadow=0;strokeWidth=1;" edge="1" parent="1" source="pOMdyjoe9ijnXIdYbif0-25" target="pOMdyjoe9ijnXIdYbif0-33">
          <mxGeometry relative="1" as="geometry" />
        </mxCell>
        <mxCell id="pOMdyjoe9ijnXIdYbif0-25" value="Question Category" style="rounded=1;whiteSpace=wrap;html=1;strokeColor=default;shadow=0;strokeWidth=1;" vertex="1" parent="1">
          <mxGeometry x="680" y="260" width="120" height="60" as="geometry" />
        </mxCell>
        <mxCell id="pOMdyjoe9ijnXIdYbif0-26" style="edgeStyle=orthogonalEdgeStyle;rounded=0;orthogonalLoop=1;jettySize=auto;html=1;entryX=0.5;entryY=0;entryDx=0;entryDy=0;" edge="1" parent="1" source="pOMdyjoe9ijnXIdYbif0-27" target="pOMdyjoe9ijnXIdYbif0-35">
          <mxGeometry relative="1" as="geometry">
            <mxPoint x="160" y="540" as="targetPoint" />
            <Array as="points">
              <mxPoint x="100" y="460" />
              <mxPoint x="260" y="460" />
            </Array>
          </mxGeometry>
        </mxCell>
        <mxCell id="pOMdyjoe9ijnXIdYbif0-27" value="KPIs Extracted&lt;br&gt;KPI to Data Mapping" style="rounded=1;whiteSpace=wrap;html=1;strokeColor=default;shadow=0;strokeWidth=1;" vertex="1" parent="1">
          <mxGeometry x="40" y="350" width="120" height="60" as="geometry" />
        </mxCell>
        <mxCell id="pOMdyjoe9ijnXIdYbif0-28" style="edgeStyle=orthogonalEdgeStyle;rounded=0;orthogonalLoop=1;jettySize=auto;html=1;exitX=0.5;exitY=1;exitDx=0;exitDy=0;" edge="1" parent="1" source="pOMdyjoe9ijnXIdYbif0-29" target="pOMdyjoe9ijnXIdYbif0-35">
          <mxGeometry relative="1" as="geometry" />
        </mxCell>
        <mxCell id="pOMdyjoe9ijnXIdYbif0-29" value="Dimension - Sub dimension&amp;nbsp;&lt;div&gt;mapping&lt;/div&gt;" style="rounded=1;whiteSpace=wrap;html=1;strokeColor=default;shadow=0;strokeWidth=1;" vertex="1" parent="1">
          <mxGeometry x="200" y="350" width="120" height="60" as="geometry" />
        </mxCell>
        <mxCell id="pOMdyjoe9ijnXIdYbif0-30" style="edgeStyle=orthogonalEdgeStyle;rounded=0;orthogonalLoop=1;jettySize=auto;html=1;exitX=0.5;exitY=1;exitDx=0;exitDy=0;entryX=0.5;entryY=0;entryDx=0;entryDy=0;" edge="1" parent="1" source="pOMdyjoe9ijnXIdYbif0-31" target="pOMdyjoe9ijnXIdYbif0-35">
          <mxGeometry relative="1" as="geometry">
            <mxPoint x="250" y="570" as="targetPoint" />
            <Array as="points">
              <mxPoint x="420" y="460" />
              <mxPoint x="260" y="460" />
            </Array>
          </mxGeometry>
        </mxCell>
        <mxCell id="pOMdyjoe9ijnXIdYbif0-31" value="&lt;div&gt;KPI - Operator Mapping&lt;/div&gt;" style="rounded=1;whiteSpace=wrap;html=1;strokeColor=default;shadow=0;strokeWidth=1;" vertex="1" parent="1">
          <mxGeometry x="360" y="350" width="120" height="60" as="geometry" />
        </mxCell>
        <mxCell id="pOMdyjoe9ijnXIdYbif0-32" value="Key Operator Extracted" style="rounded=1;whiteSpace=wrap;html=1;strokeColor=default;shadow=0;strokeWidth=1;" vertex="1" parent="1">
          <mxGeometry x="520" y="350" width="120" height="60" as="geometry" />
        </mxCell>
        <mxCell id="pOMdyjoe9ijnXIdYbif0-33" value="Type of Question" style="rounded=1;whiteSpace=wrap;html=1;strokeColor=default;shadow=0;strokeWidth=1;" vertex="1" parent="1">
          <mxGeometry x="680" y="350" width="120" height="60" as="geometry" />
        </mxCell>
        <mxCell id="pOMdyjoe9ijnXIdYbif0-34" style="edgeStyle=orthogonalEdgeStyle;rounded=0;orthogonalLoop=1;jettySize=auto;html=1;entryX=0.5;entryY=0;entryDx=0;entryDy=0;" edge="1" parent="1" source="pOMdyjoe9ijnXIdYbif0-35" target="pOMdyjoe9ijnXIdYbif0-40">
          <mxGeometry relative="1" as="geometry" />
        </mxCell>
        <mxCell id="pOMdyjoe9ijnXIdYbif0-35" value="Extracted Details" style="rounded=1;whiteSpace=wrap;html=1;" vertex="1" parent="1">
          <mxGeometry x="200" y="555" width="120" height="60" as="geometry" />
        </mxCell>
        <mxCell id="pOMdyjoe9ijnXIdYbif0-36" value="&lt;h3&gt;Micro-Descioning Step&lt;/h3&gt;" style="text;html=1;align=center;verticalAlign=middle;resizable=0;points=[];autosize=1;strokeColor=none;fillColor=none;" vertex="1" parent="1">
          <mxGeometry y="130" width="180" height="60" as="geometry" />
        </mxCell>
        <mxCell id="pOMdyjoe9ijnXIdYbif0-37" value="&lt;h3&gt;Level 1 Construct&lt;/h3&gt;" style="text;html=1;align=center;verticalAlign=middle;resizable=0;points=[];autosize=1;strokeColor=none;fillColor=none;" vertex="1" parent="1">
          <mxGeometry x="-150" y="260" width="140" height="60" as="geometry" />
        </mxCell>
        <mxCell id="pOMdyjoe9ijnXIdYbif0-38" value="&lt;h3&gt;Level 2 Construct&lt;/h3&gt;" style="text;html=1;align=center;verticalAlign=middle;resizable=0;points=[];autosize=1;strokeColor=none;fillColor=none;" vertex="1" parent="1">
          <mxGeometry x="-150" y="350" width="140" height="60" as="geometry" />
        </mxCell>
        <mxCell id="pOMdyjoe9ijnXIdYbif0-39" style="edgeStyle=orthogonalEdgeStyle;rounded=0;orthogonalLoop=1;jettySize=auto;html=1;exitX=0.5;exitY=1;exitDx=0;exitDy=0;entryX=0.5;entryY=0;entryDx=0;entryDy=0;" edge="1" parent="1" source="pOMdyjoe9ijnXIdYbif0-40" target="pOMdyjoe9ijnXIdYbif0-46">
          <mxGeometry relative="1" as="geometry" />
        </mxCell>
        <mxCell id="pOMdyjoe9ijnXIdYbif0-40" value="&lt;div&gt;Operator&lt;/div&gt;" style="rounded=1;whiteSpace=wrap;html=1;" vertex="1" parent="1">
          <mxGeometry x="520" y="570" width="120" height="60" as="geometry" />
        </mxCell>
        <mxCell id="pOMdyjoe9ijnXIdYbif0-41" style="edgeStyle=orthogonalEdgeStyle;rounded=0;orthogonalLoop=1;jettySize=auto;html=1;entryX=0.5;entryY=0;entryDx=0;entryDy=0;exitX=0;exitY=0.5;exitDx=0;exitDy=0;" edge="1" parent="1" source="pOMdyjoe9ijnXIdYbif0-40" target="pOMdyjoe9ijnXIdYbif0-44">
          <mxGeometry relative="1" as="geometry">
            <mxPoint x="515" y="630" as="sourcePoint" />
          </mxGeometry>
        </mxCell>
        <mxCell id="pOMdyjoe9ijnXIdYbif0-42" style="edgeStyle=orthogonalEdgeStyle;rounded=0;orthogonalLoop=1;jettySize=auto;html=1;entryX=0.5;entryY=0;entryDx=0;entryDy=0;exitX=1;exitY=0.5;exitDx=0;exitDy=0;" edge="1" parent="1" source="pOMdyjoe9ijnXIdYbif0-40" target="pOMdyjoe9ijnXIdYbif0-48">
          <mxGeometry relative="1" as="geometry">
            <mxPoint x="520" y="580" as="sourcePoint" />
          </mxGeometry>
        </mxCell>
        <mxCell id="pOMdyjoe9ijnXIdYbif0-43" value="" style="edgeStyle=orthogonalEdgeStyle;rounded=0;orthogonalLoop=1;jettySize=auto;html=1;" edge="1" parent="1" source="pOMdyjoe9ijnXIdYbif0-44" target="pOMdyjoe9ijnXIdYbif0-50">
          <mxGeometry relative="1" as="geometry" />
        </mxCell>
        <mxCell id="pOMdyjoe9ijnXIdYbif0-44" value="Direct Formulae" style="rounded=1;whiteSpace=wrap;html=1;" vertex="1" parent="1">
          <mxGeometry x="330" y="670" width="120" height="60" as="geometry" />
        </mxCell>
        <mxCell id="pOMdyjoe9ijnXIdYbif0-45" value="" style="edgeStyle=orthogonalEdgeStyle;rounded=0;orthogonalLoop=1;jettySize=auto;html=1;" edge="1" parent="1" source="pOMdyjoe9ijnXIdYbif0-46" target="pOMdyjoe9ijnXIdYbif0-52">
          <mxGeometry relative="1" as="geometry" />
        </mxCell>
        <mxCell id="pOMdyjoe9ijnXIdYbif0-46" value="Key Driver" style="rounded=1;whiteSpace=wrap;html=1;" vertex="1" parent="1">
          <mxGeometry x="520" y="670" width="120" height="60" as="geometry" />
        </mxCell>
        <mxCell id="pOMdyjoe9ijnXIdYbif0-47" style="edgeStyle=orthogonalEdgeStyle;rounded=0;orthogonalLoop=1;jettySize=auto;html=1;entryX=0.5;entryY=0;entryDx=0;entryDy=0;" edge="1" parent="1" source="pOMdyjoe9ijnXIdYbif0-48" target="pOMdyjoe9ijnXIdYbif0-52">
          <mxGeometry relative="1" as="geometry" />
        </mxCell>
        <mxCell id="pOMdyjoe9ijnXIdYbif0-48" value="Trend" style="rounded=1;whiteSpace=wrap;html=1;" vertex="1" parent="1">
          <mxGeometry x="720" y="670" width="120" height="60" as="geometry" />
        </mxCell>
        <mxCell id="pOMdyjoe9ijnXIdYbif0-49" value="" style="edgeStyle=orthogonalEdgeStyle;rounded=0;orthogonalLoop=1;jettySize=auto;html=1;exitX=0.5;exitY=1;exitDx=0;exitDy=0;" edge="1" parent="1" source="pOMdyjoe9ijnXIdYbif0-50" target="pOMdyjoe9ijnXIdYbif0-56">
          <mxGeometry relative="1" as="geometry" />
        </mxCell>
        <mxCell id="pOMdyjoe9ijnXIdYbif0-50" value="Text to SQL Agent" style="rounded=1;whiteSpace=wrap;html=1;" vertex="1" parent="1">
          <mxGeometry x="330" y="810" width="120" height="60" as="geometry" />
        </mxCell>
        <mxCell id="pOMdyjoe9ijnXIdYbif0-51" value="" style="edgeStyle=orthogonalEdgeStyle;rounded=0;orthogonalLoop=1;jettySize=auto;html=1;" edge="1" parent="1" source="pOMdyjoe9ijnXIdYbif0-52" target="pOMdyjoe9ijnXIdYbif0-54">
          <mxGeometry relative="1" as="geometry" />
        </mxCell>
        <mxCell id="pOMdyjoe9ijnXIdYbif0-52" value="Data&amp;nbsp;&lt;div&gt;Preprocessing&lt;/div&gt;" style="rounded=1;whiteSpace=wrap;html=1;" vertex="1" parent="1">
          <mxGeometry x="620" y="800" width="120" height="60" as="geometry" />
        </mxCell>
        <mxCell id="pOMdyjoe9ijnXIdYbif0-53" style="edgeStyle=orthogonalEdgeStyle;rounded=0;orthogonalLoop=1;jettySize=auto;html=1;exitX=0.5;exitY=1;exitDx=0;exitDy=0;" edge="1" parent="1" source="pOMdyjoe9ijnXIdYbif0-54">
          <mxGeometry relative="1" as="geometry">
            <mxPoint x="570" y="1080" as="targetPoint" />
          </mxGeometry>
        </mxCell>
        <mxCell id="pOMdyjoe9ijnXIdYbif0-54" value="Python Function Agent" style="rounded=1;whiteSpace=wrap;html=1;" vertex="1" parent="1">
          <mxGeometry x="620" y="920" width="120" height="60" as="geometry" />
        </mxCell>
        <mxCell id="pOMdyjoe9ijnXIdYbif0-55" style="edgeStyle=orthogonalEdgeStyle;rounded=0;orthogonalLoop=1;jettySize=auto;html=1;exitX=0.5;exitY=1;exitDx=0;exitDy=0;entryX=0.5;entryY=0;entryDx=0;entryDy=0;" edge="1" parent="1" source="pOMdyjoe9ijnXIdYbif0-56" target="pOMdyjoe9ijnXIdYbif0-57">
          <mxGeometry relative="1" as="geometry" />
        </mxCell>
        <mxCell id="pOMdyjoe9ijnXIdYbif0-56" value="Final Output" style="rounded=1;whiteSpace=wrap;html=1;" vertex="1" parent="1">
          <mxGeometry x="510" y="1080" width="120" height="60" as="geometry" />
        </mxCell>
        <mxCell id="pOMdyjoe9ijnXIdYbif0-57" value="Output Format" style="rounded=1;whiteSpace=wrap;html=1;" vertex="1" parent="1">
          <mxGeometry x="510" y="1200" width="120" height="60" as="geometry" />
        </mxCell>
        <mxCell id="pOMdyjoe9ijnXIdYbif0-58" style="edgeStyle=orthogonalEdgeStyle;rounded=0;orthogonalLoop=1;jettySize=auto;html=1;exitX=0.5;exitY=1;exitDx=0;exitDy=0;entryX=1;entryY=0.5;entryDx=0;entryDy=0;" edge="1" parent="1" source="pOMdyjoe9ijnXIdYbif0-59" target="pOMdyjoe9ijnXIdYbif0-56">
          <mxGeometry relative="1" as="geometry" />
        </mxCell>
        <mxCell id="pOMdyjoe9ijnXIdYbif0-59" value="OpenAI Service" style="ellipse;whiteSpace=wrap;html=1;" vertex="1" parent="1">
          <mxGeometry x="990" y="470" width="160" height="150" as="geometry" />
        </mxCell>
        <mxCell id="pOMdyjoe9ijnXIdYbif0-60" style="edgeStyle=orthogonalEdgeStyle;rounded=0;orthogonalLoop=1;jettySize=auto;html=1;exitX=0.5;exitY=0;exitDx=0;exitDy=0;entryX=1.004;entryY=0.127;entryDx=0;entryDy=0;entryPerimeter=0;dashed=1;dashPattern=1 1;" edge="1" parent="1" source="pOMdyjoe9ijnXIdYbif0-59" target="pOMdyjoe9ijnXIdYbif0-2">
          <mxGeometry relative="1" as="geometry" />
        </mxCell>
        <UserObject label="" tooltip="KPI Extraction Microservice" id="pOMdyjoe9ijnXIdYbif0-61">
          <mxCell style="verticalLabelPosition=bottom;verticalAlign=top;html=1;shape=mxgraph.basic.rect;fillColor2=none;strokeWidth=2;size=20;indent=5;fillColor=none;strokeColor=#9673a6;dashed=1;perimeterSpacing=0;shadow=0;" vertex="1" parent="1">
            <mxGeometry x="-660" y="580" width="140" height="220" as="geometry" />
          </mxCell>
        </UserObject>
        <mxCell id="pOMdyjoe9ijnXIdYbif0-62" style="edgeStyle=orthogonalEdgeStyle;rounded=0;orthogonalLoop=1;jettySize=auto;html=1;exitX=0.5;exitY=1;exitDx=0;exitDy=0;entryX=0.5;entryY=0;entryDx=0;entryDy=0;strokeColor=default;shadow=0;strokeWidth=1;" edge="1" parent="1" source="pOMdyjoe9ijnXIdYbif0-63" target="pOMdyjoe9ijnXIdYbif0-64">
          <mxGeometry relative="1" as="geometry" />
        </mxCell>
        <mxCell id="pOMdyjoe9ijnXIdYbif0-63" value="KPI Extraction Prompt" style="rounded=1;whiteSpace=wrap;html=1;strokeColor=default;shadow=0;strokeWidth=1;" vertex="1" parent="1">
          <mxGeometry x="-650" y="620" width="120" height="60" as="geometry" />
        </mxCell>
        <mxCell id="pOMdyjoe9ijnXIdYbif0-64" value="KPIs Extracted&lt;br&gt;KPI to Data Mapping" style="rounded=1;whiteSpace=wrap;html=1;strokeColor=default;shadow=0;strokeWidth=1;" vertex="1" parent="1">
          <mxGeometry x="-650" y="710" width="120" height="60" as="geometry" />
        </mxCell>
        <mxCell id="pOMdyjoe9ijnXIdYbif0-65" value="" style="edgeStyle=orthogonalEdgeStyle;rounded=0;orthogonalLoop=1;jettySize=auto;html=1;" edge="1" parent="1" source="pOMdyjoe9ijnXIdYbif0-66" target="pOMdyjoe9ijnXIdYbif0-67">
          <mxGeometry relative="1" as="geometry" />
        </mxCell>
        <mxCell id="pOMdyjoe9ijnXIdYbif0-66" value="Input" style="rounded=1;whiteSpace=wrap;html=1;strokeColor=default;shadow=0;strokeWidth=1;" vertex="1" parent="1">
          <mxGeometry x="-780" y="840" width="120" height="60" as="geometry" />
        </mxCell>
        <mxCell id="pOMdyjoe9ijnXIdYbif0-67" value="&lt;div&gt;KPI&lt;/div&gt;Prompt" style="rounded=1;whiteSpace=wrap;html=1;strokeColor=default;shadow=0;strokeWidth=1;" vertex="1" parent="1">
          <mxGeometry x="-580" y="840" width="120" height="60" as="geometry" />
        </mxCell>
        <mxCell id="pOMdyjoe9ijnXIdYbif0-68" value="&lt;font style=&quot;font-size: 11px;&quot;&gt;Extract KPIS from&amp;nbsp;&lt;/font&gt;&lt;div style=&quot;font-size: 11px;&quot;&gt;&lt;font style=&quot;font-size: 11px;&quot;&gt;query = {query}&lt;/font&gt;&lt;/div&gt;&lt;div style=&quot;font-size: 11px;&quot;&gt;&lt;font style=&quot;font-size: 11px;&quot;&gt;&lt;br&gt;&lt;/font&gt;&lt;/div&gt;&lt;div style=&quot;font-size: 11px;&quot;&gt;&lt;font style=&quot;font-size: 11px;&quot;&gt;these are some possible options&lt;/font&gt;&lt;/div&gt;&lt;div style=&quot;font-size: 11px;&quot;&gt;&lt;font style=&quot;font-size: 11px;&quot;&gt;&lt;br&gt;&lt;/font&gt;&lt;/div&gt;&lt;div style=&quot;font-size: 11px;&quot;&gt;&lt;font style=&quot;font-size: 11px;&quot;&gt;KPI1 = definition&lt;/font&gt;&lt;/div&gt;&lt;div style=&quot;font-size: 11px;&quot;&gt;&lt;font style=&quot;font-size: 11px;&quot;&gt;KPI2 = definition&lt;br&gt;&lt;/font&gt;&lt;/div&gt;&lt;div style=&quot;font-size: 11px;&quot;&gt;&lt;font style=&quot;font-size: 11px;&quot;&gt;..&lt;/font&gt;&lt;/div&gt;&lt;div style=&quot;font-size: 11px;&quot;&gt;&lt;font style=&quot;font-size: 11px;&quot;&gt;..&lt;/font&gt;&lt;/div&gt;&lt;div style=&quot;font-size: 11px;&quot;&gt;&lt;font style=&quot;font-size: 11px;&quot;&gt;&lt;br&gt;&lt;/font&gt;&lt;/div&gt;&lt;div style=&quot;font-size: 11px;&quot;&gt;&lt;font style=&quot;font-size: 11px;&quot;&gt;Using the above information extraction KPIS from given query&lt;/font&gt;&lt;/div&gt;&lt;div style=&quot;font-size: 11px;&quot;&gt;&lt;font style=&quot;font-size: 11px;&quot;&gt;&lt;br&gt;&lt;/font&gt;&lt;/div&gt;&lt;div style=&quot;font-size: 11px;&quot;&gt;&lt;div&gt;&lt;font style=&quot;font-size: 11px;&quot;&gt;query = {query}&lt;/font&gt;&lt;/div&gt;&lt;div&gt;&lt;font style=&quot;font-size: 11px;&quot;&gt;Answer =&amp;nbsp;&lt;/font&gt;&lt;/div&gt;&lt;/div&gt;&lt;div style=&quot;font-size: 11px;&quot;&gt;&lt;font style=&quot;font-size: 11px;&quot;&gt;&lt;br&gt;&lt;/font&gt;&lt;/div&gt;&lt;div style=&quot;font-size: 11px;&quot;&gt;&lt;br&gt;&lt;/div&gt;" style="rounded=1;whiteSpace=wrap;html=1;strokeColor=default;shadow=0;strokeWidth=1;arcSize=2;" vertex="1" parent="1">
          <mxGeometry x="-685" y="930" width="330" height="330" as="geometry" />
        </mxCell>
        <mxCell id="pOMdyjoe9ijnXIdYbif0-69" value="" style="edgeStyle=orthogonalEdgeStyle;rounded=0;orthogonalLoop=1;jettySize=auto;html=1;exitX=1;exitY=0.5;exitDx=0;exitDy=0;" edge="1" parent="1" source="pOMdyjoe9ijnXIdYbif0-67">
          <mxGeometry relative="1" as="geometry">
            <mxPoint x="-435" y="870" as="sourcePoint" />
            <mxPoint x="-370" y="870" as="targetPoint" />
          </mxGeometry>
        </mxCell>
        <mxCell id="pOMdyjoe9ijnXIdYbif0-70" value="Extracted KPI" style="rounded=1;whiteSpace=wrap;html=1;strokeColor=default;shadow=0;strokeWidth=1;" vertex="1" parent="1">
          <mxGeometry x="-370" y="840" width="120" height="60" as="geometry" />
        </mxCell>
        <mxCell id="pOMdyjoe9ijnXIdYbif0-71" value="What is the rolling 12 month average turnover rate of US ?" style="text;html=1;align=center;verticalAlign=middle;resizable=0;points=[];autosize=1;strokeColor=none;fillColor=none;" vertex="1" parent="1">
          <mxGeometry x="255" width="330" height="30" as="geometry" />
        </mxCell>
        <mxCell id="pOMdyjoe9ijnXIdYbif0-72" value="Turnover Rate ( TO )" style="text;html=1;align=center;verticalAlign=middle;resizable=0;points=[];autosize=1;strokeColor=none;fillColor=none;" vertex="1" parent="1">
          <mxGeometry x="25" y="480" width="130" height="30" as="geometry" />
        </mxCell>
        <mxCell id="pOMdyjoe9ijnXIdYbif0-73" value="Country" style="rounded=1;whiteSpace=wrap;html=1;strokeColor=default;shadow=0;strokeWidth=1;" vertex="1" parent="1">
          <mxGeometry x="850" y="10" width="120" height="60" as="geometry" />
        </mxCell>
        <mxCell id="pOMdyjoe9ijnXIdYbif0-74" value="BG Country" style="rounded=1;whiteSpace=wrap;html=1;strokeColor=default;shadow=0;strokeWidth=1;" vertex="1" parent="1">
          <mxGeometry x="1050" y="10" width="120" height="60" as="geometry" />
        </mxCell>
        <mxCell id="pOMdyjoe9ijnXIdYbif0-75" style="edgeStyle=orthogonalEdgeStyle;rounded=0;orthogonalLoop=1;jettySize=auto;html=1;exitX=0.5;exitY=1;exitDx=0;exitDy=0;entryX=0.5;entryY=0;entryDx=0;entryDy=0;" edge="1" parent="1" source="pOMdyjoe9ijnXIdYbif0-74" target="pOMdyjoe9ijnXIdYbif0-76">
          <mxGeometry relative="1" as="geometry">
            <Array as="points">
              <mxPoint x="1110" y="80" />
              <mxPoint x="1020" y="80" />
            </Array>
          </mxGeometry>
        </mxCell>
        <mxCell id="pOMdyjoe9ijnXIdYbif0-76" value="United States" style="rounded=1;whiteSpace=wrap;html=1;strokeColor=default;shadow=0;strokeWidth=1;" vertex="1" parent="1">
          <mxGeometry x="960" y="100" width="120" height="70" as="geometry" />
        </mxCell>
      </root>
    </mxGraphModel>
  </diagram>
</mxfile>
